<?xml version="1.0" encoding="utf-8"?>
<!-- Generator: Adobe Illustrator 21.1.0, SVG Export Plug-In . SVG Version: 6.00 Build 0)  -->
<svg version="1.1" id="Layer_1" xmlns="http://www.w3.org/2000/svg" xmlns:xlink="http://www.w3.org/1999/xlink" x="0px" y="0px"
	 viewBox="0 0 336.1 341.4" style="enable-background:new 0 0 336.1 341.4;" xml:space="preserve">
<style type="text/css">
	.st0{fill:#036092;}
	.st1{fill:#A5CA39;}
</style>
<g>
	<g>
		<path class="st0" d="M182.8,336.8c-91.7,0-166.1-74.3-166.1-166.1C16.7,79,91.1,4.6,182.8,4.6c20.6,0,40.4,3.8,58.6,10.6
			C219.8,5.5,195.9,0,170.7,0C76.4,0,0,76.4,0,170.7C0,265,76.4,341.4,170.7,341.4c25.2,0,49.2-5.5,70.7-15.3
			C223.2,333,203.4,336.8,182.8,336.8z"/>
		<g>
			<path class="st0" d="M145.5,128.4c4,6.5,8.9,11.5,14.6,15.1c5.7,3.6,12.2,5.4,19.6,5.4c11.8,0,21.5-4.4,29.2-13.2
				c7.6-8.8,11.5-22.8,11.5-42c0-10.4-1-20.1-3.1-29c-2.1-8.9-5.1-16.7-9-23.3c-3.9-6.6-8.8-11.7-14.6-15.5
				c-5.8-3.7-12.4-5.6-19.8-5.6c-11.3,0-21,4.6-28.8,13.7c-7.9,9.1-11.8,23.2-11.8,42.2c0,10.4,1,20.1,3.1,29
				C138.4,114.2,141.5,121.9,145.5,128.4z"/>
			<path class="st1" d="M82.3,266.6c2.3-3.3,4.8-6.4,7.5-9.5c2.2-2.5,5.4-7.8,9.1-8.2c1.8-0.2,3.7-0.1,5.5,0c2.8,0.2,7.6,1.2,9,4
				c3,6.1-4.5,11.7-4.5,16.8c0,5.3,2.1,10.1,6.4,14.2c4.3,4.2,10.1,7.7,17.4,10.6c7.3,2.9,15.8,5.2,25.5,6.8
				c9.7,1.6,20.1,2.4,31.3,2.4c14.1,0,26.3-1.4,36.5-4.2c10.2-2.8,18.6-6.4,25.3-10.9c6.7-4.5,11.7-9.5,14.9-14.9
				c3.2-5.4,4.9-10.9,4.9-16.5c0-3.9-0.8-7.3-2.4-10.1c-1.6-2.8-4.7-5.1-9.2-6.9c-4.5-1.9-10.6-3.2-18.4-4.2
				c-7.8-0.9-17.7-1.6-29.7-2.1c-34.5-0.7-61.3-2.4-80.5-5.2c0,0-9.8-0.7-12.8-1.7c-8.9-3.1-13.8-9.2-17-13c-3.2-3.8-4.9-8.2-4.9-13
				c0-2.8,0.4-5.7,1.2-8.7c0.8-3,2.5-6.4,5-10.2c2.5-3.8,6.3-8.3,11.3-13.4c5-5.1,11.5-11,19.6-17.7c-13.2-6.5-23.3-15.3-30.2-26.6
				c-6.9-11.2-10.4-23.8-10.4-37.7c0-10.6,2.1-20.7,6.4-30c4.3-9.4,10.2-17.6,17.7-24.7c1.2-1.1,2.5-2.2,3.7-3.3
				c-54.7,23.7-93,78.2-93,141.6c0,44.2,18.6,84,48.3,112.1c0.2-1.8,0.5-3.6,1-5.2C77.6,274.3,79.4,270.7,82.3,266.6z"/>
			<path class="st0" d="M229.4,23.6c0.3,0.2,0.7,0.4,1,0.7c12,9.5,21.7,23.9,26.7,38.4c2.8,8.2,3.9,16.8,3.9,25.4
				c0,9.7-2,18.9-5.9,27.6c-3.9,8.7-9.5,16.3-16.8,22.9c-7.3,6.6-16.1,11.8-26.6,15.6c-10.4,3.8-22,5.7-34.7,5.7
				c-5.3,0-10.7-0.3-16.1-1c-5.4-0.7-10.8-1.8-16.1-3.5c-6.9,6-11.6,11.2-13.9,15.5c-2.3,4.3-3.5,8-3.5,11.3c0,2.5,0.5,4.6,1.4,6.2
				c0.9,1.6,3.1,3,6.6,4.2c3.5,1.2,8.6,2.1,15.4,2.8c6.8,0.7,16.1,1.2,27.9,1.4c16,0.5,29.1,1,39.4,1.7c10.3,0.7,17.9,1.3,22.7,1.7
				c14.6,1.9,26.1,7.1,34.5,15.8c8.4,8.7,12.7,19.4,12.7,32.1c0,11.6-3.3,22.4-9.9,32.5c-6.6,10.1-15.5,18.9-26.6,26.4
				c-2.3,1.5-4.6,3-7,4.4c53.9-24.1,91.5-78.1,91.5-141C336.1,101.8,291.3,43.6,229.4,23.6z"/>
		</g>
	</g>
</g>
</svg>
